<svg width="16" height="12" viewBox="0 0 16 12" fill="none" xmlns="http://www.w3.org/2000/svg">
    <path d="M2 0.5H5.5V11.5H2C1.17157 11.5 0.5 10.8284 0.5 10V2C0.5 1.17157 1.17157 0.5 2 0.5Z" stroke="#545665"/>
    <mask id="path-2-inside-1_1599_963" fill="white">
        <path d="M16 10C16 11.1046 15.1046 12 14 12L6 12L6 0L14 0C15.1046 0 16 0.895431 16 2V10Z"/>
    </mask>
    <path d="M17 10C17 11.6569 15.6569 13 14 13L6 13V11L14 11C14.5523 11 15 10.5523 15 10H17ZM6 -1L14 -1C15.6569 -1 17 0.343145 17 2H15C15 1.44771 14.5523 1 14 1L6 1V-1ZM14 -1C15.6569 -1 17 0.343145 17 2V10C17 11.6569 15.6569 13 14 13V11C14.5523 11 15 10.5523 15 10L15 2C15 1.44771 14.5523 1 14 1V-1ZM6 12L6 0L6 12Z" fill="#545665" mask="url(#path-2-inside-1_1599_963)"/>
</svg>